<?xml version="1.0" encoding="UTF-8"?>
<svg width="10px" height="5px" viewBox="0 0 10 5" version="1.1" xmlns="http://www.w3.org/2000/svg" xmlns:xlink="http://www.w3.org/1999/xlink">
    <title>arrow_right_24dp_FILL1_wght400_GRAD0_opsz24 Copy</title>
    <g id="Ui-kit" stroke="none" stroke-width="1" fill="none" fill-rule="evenodd">
        <g id="Tools" transform="translate(-275, -218)" fill="#5F6368" fill-rule="nonzero">
            <g id="Tools_video-2" transform="translate(220, 175)">
                <g id="Group-13" transform="translate(40, 40)">
                    <g id="arrow_right_24dp_FILL1_wght400_GRAD0_opsz24-Copy" transform="translate(20, 5.5) rotate(-90) translate(-20, -5.5)translate(17.5, 0.5)">
                        <path d="M0.531914894,10 C0.390070922,10 0.265957447,9.94670543 0.159574468,9.84011628 C0.0531914894,9.73352713 0,9.59302326 0,9.41860465 L0,0.581395349 C0,0.406976744 0.0531914894,0.266472868 0.159574468,0.159883721 C0.265957447,0.0532945736 0.390070922,3.12284934e-15 0.531914894,3.12284934e-15 C0.567375887,3.12284934e-15 0.691489362,0.0581395349 0.904255319,0.174418605 L4.7606383,4.38953488 C4.84929078,4.48643411 4.91134752,4.58333333 4.94680851,4.68023256 C4.9822695,4.77713178 5,4.88372093 5,5 C5,5.11627907 4.9822695,5.22286822 4.94680851,5.31976744 C4.91134752,5.41666667 4.84929078,5.51356589 4.7606383,5.61046512 L0.904255319,9.8255814 C0.85106383,9.88372093 0.793439716,9.92732558 0.731382979,9.95639535 C0.669326241,9.98546512 0.602836879,10 0.531914894,10 Z" id="Path"></path>
                    </g>
                </g>
            </g>
        </g>
    </g>
</svg>