<?xml version="1.0" encoding="UTF-8"?>
<svg width="24px" height="24px" viewBox="0 0 24 24" version="1.1" xmlns="http://www.w3.org/2000/svg" xmlns:xlink="http://www.w3.org/1999/xlink">
    <title>Icons/checkbox/check</title>
    <g id="Icons/checkbox/check" stroke="none" stroke-width="1" fill="none" fill-rule="evenodd">
        <g id="check_box_24dp_5F6368_FILL1_wght400_GRAD0_opsz24-(2)" transform="translate(3, 3)" fill="#0D6EFD" fill-rule="nonzero">
            <path d="M7.6,10.4 L5.45,8.25 C5.26666667,8.06666667 5.03333333,7.975 4.75,7.975 C4.46666667,7.975 4.23333333,8.06666667 4.05,8.25 C3.86666667,8.43333333 3.775,8.66666667 3.775,8.95 C3.775,9.23333333 3.86666667,9.46666667 4.05,9.65 L6.9,12.5 C7.1,12.7 7.33333333,12.8 7.6,12.8 C7.86666667,12.8 8.1,12.7 8.3,12.5 L13.95,6.85 C14.1333333,6.66666667 14.225,6.43333333 14.225,6.15 C14.225,5.86666667 14.1333333,5.63333333 13.95,5.45 C13.7666667,5.26666667 13.5333333,5.175 13.25,5.175 C12.9666667,5.175 12.7333333,5.26666667 12.55,5.45 L7.6,10.4 Z M2,18 C1.45,18 0.979166667,17.8041667 0.5875,17.4125 C0.195833333,17.0208333 0,16.55 0,16 L0,2 C0,1.45 0.195833333,0.979166667 0.5875,0.5875 C0.979166667,0.195833333 1.45,0 2,0 L16,0 C16.55,0 17.0208333,0.195833333 17.4125,0.5875 C17.8041667,0.979166667 18,1.45 18,2 L18,16 C18,16.55 17.8041667,17.0208333 17.4125,17.4125 C17.0208333,17.8041667 16.55,18 16,18 L2,18 Z" id="Shape"></path>
        </g>
    </g>
</svg>