<?xml version="1.0" encoding="UTF-8"?>
<svg width="19px" height="20px" viewBox="0 0 19 20" version="1.1" xmlns="http://www.w3.org/2000/svg" xmlns:xlink="http://www.w3.org/1999/xlink">
    <title>CloseRounded</title>
    <defs>
        <path d="M10.2065546,0.252083334 C9.89780462,-0.072916667 9.39905462,-0.072916667 9.09030462,0.252083334 L5.21905461,4.31872502 L1.34782042,0.243750001 C1.03907042,-0.0812500003 0.540312502,-0.0812500003 0.231562501,0.243750001 C-0.0771875003,0.568750002 -0.0771875003,1.09375 0.231562501,1.41875001 L4.1028046,5.49372502 L0.231562501,9.56872504 C-0.0771875003,9.89372504 -0.0771875003,10.418725 0.231562501,10.743725 C0.540312502,11.068725 1.03907042,11.068725 1.34782042,10.743725 L5.21905461,6.66872503 L9.09030462,10.743725 C9.39905462,11.068725 9.89780462,11.068725 10.2065546,10.743725 C10.5153046,10.418725 10.5153046,9.89372504 10.2065546,9.56872504 L6.33530461,5.49372502 L10.2065546,1.41875001 C10.507388,1.10208334 10.507388,0.568750002 10.2065546,0.252083334 Z" id="path-1"></path>
    </defs>
    <g id="Symbols" stroke="none" stroke-width="1" fill="none" fill-rule="evenodd">
        <g id="Header" transform="translate(-215, -10)">
            <g id="CloseRounded" transform="translate(219.2811, 14.506)">
                <mask id="mask-2" fill="white">
                    <use xlink:href="#path-1"></use>
                </mask>
                <use fill="#767676" fill-rule="nonzero" xlink:href="#path-1"></use>
            </g>
        </g>
    </g>
</svg>