<?xml version="1.0" encoding="UTF-8"?>
<svg width="20px" height="20px" viewBox="0 0 20 20" version="1.1" xmlns="http://www.w3.org/2000/svg" xmlns:xlink="http://www.w3.org/1999/xlink">
    <title>RemoveRedEyeRounded</title>
    <defs>
        <path d="M10,15.0000001 L1.66666667,15.0000001 L1.66666667,4.16666668 C1.66666667,3.70833335 1.29166667,3.33333335 0.833333337,3.33333335 C0.375000002,3.33333335 -3.55271368e-15,3.70833335 -3.55271368e-15,4.16666668 L-3.55271368e-15,15.0000001 C-3.55271368e-15,15.9166667 0.750000003,16.6666667 1.66666667,16.6666667 L10,16.6666667 C10.4583334,16.6666667 10.8333334,16.2916667 10.8333334,15.8333333 C10.8333334,15.3750001 10.4583334,15.0000001 10,15.0000001 Z M14.1666667,11.6666667 L14.1666667,1.66666667 C14.1666667,0.750000003 13.4166667,0 12.5000001,0 L5.00000002,0 C4.08333335,0 3.33333335,0.750000003 3.33333335,1.66666667 L3.33333335,11.6666667 C3.33333335,12.5833334 4.08333335,13.3333334 5.00000002,13.3333334 L12.5000001,13.3333334 C13.4166667,13.3333334 14.1666667,12.5833334 14.1666667,11.6666667 Z M12.5,11.6666667 L5.00000002,11.6666667 L5.00000002,1.66666667 L12.5,1.66666667 L12.5,11.6666667 Z" id="path-1"></path>
    </defs>
    <g id="Symbols" stroke="none" stroke-width="1" fill="none" fill-rule="evenodd">
        <g id="List/icon" transform="translate(-16, -10)">
            <g id="RemoveRedEyeRounded" transform="translate(18.5, 11.6667)">
                <mask id="mask-2" fill="white">
                    <use xlink:href="#path-1"></use>
                </mask>
                <use id="ContentCopyRounded" fill="#767676" fill-rule="nonzero" xlink:href="#path-1"></use>
            </g>
        </g>
    </g>
</svg>