<?xml version="1.0" encoding="UTF-8"?>
<svg width="24px" height="24px" viewBox="0 0 24 24" version="1.1" xmlns="http://www.w3.org/2000/svg" xmlns:xlink="http://www.w3.org/1999/xlink">
    <title>Map</title>
    <g id="Symbols" stroke="none" stroke-width="1" fill="none" fill-rule="evenodd">
        <g id="Tools_3-Copy-2" transform="translate(-8, -217)" fill="#767676" fill-rule="nonzero">
            <g id="Tools_rukller-Copy" transform="translate(0, 209)">
                <g id="Map" transform="translate(9.275, 12.5)">
                    <g id="visibility_24dp_5F6368_FILL1_wght400_GRAD0_opsz24-(3)" transform="translate(0, 0)">
                        <path d="M10.725,12 C11.975,12 13.0375,11.5625 13.9125,10.6875 C14.7875,9.8125 15.225,8.75 15.225,7.5 C15.225,6.25 14.7875,5.1875 13.9125,4.3125 C13.0375,3.4375 11.975,3 10.725,3 C9.475,3 8.4125,3.4375 7.5375,4.3125 C6.6625,5.1875 6.225,6.25 6.225,7.5 C6.225,8.75 6.6625,9.8125 7.5375,10.6875 C8.4125,11.5625 9.475,12 10.725,12 Z M10.725,10.2 C9.975,10.2 9.3375,9.9375 8.8125,9.4125 C8.2875,8.8875 8.025,8.25 8.025,7.5 C8.025,6.75 8.2875,6.1125 8.8125,5.5875 C9.3375,5.0625 9.975,4.8 10.725,4.8 C11.475,4.8 12.1125,5.0625 12.6375,5.5875 C13.1625,6.1125 13.425,6.75 13.425,7.5 C13.425,8.25 13.1625,8.8875 12.6375,9.4125 C12.1125,9.9375 11.475,10.2 10.725,10.2 Z M10.725,15 C8.49166667,15 6.45416667,14.4 4.6125,13.2 C2.77083333,12 1.31666667,10.4166667 0.25,8.45 C0.166666667,8.3 0.104166667,8.14583333 0.0625,7.9875 C0.0208333333,7.82916667 0,7.66666667 0,7.5 C0,7.33333333 0.0208333333,7.17083333 0.0625,7.0125 C0.104166667,6.85416667 0.166666667,6.7 0.25,6.55 C1.31666667,4.58333333 2.77083333,3 4.6125,1.8 C6.45416667,0.6 8.49166667,0 10.725,0 C12.9583333,0 14.9958333,0.6 16.8375,1.8 C18.6791667,3 20.1333333,4.58333333 21.2,6.55 C21.2833333,6.7 21.3458333,6.85416667 21.3875,7.0125 C21.4291667,7.17083333 21.45,7.33333333 21.45,7.5 C21.45,7.66666667 21.4291667,7.82916667 21.3875,7.9875 C21.3458333,8.14583333 21.2833333,8.3 21.2,8.45 C20.1333333,10.4166667 18.6791667,12 16.8375,13.2 C14.9958333,14.4 12.9583333,15 10.725,15 Z" id="Shape"></path>
                    </g>
                </g>
            </g>
        </g>
    </g>
</svg>