<?xml version="1.0" encoding="UTF-8"?>
<svg width="24px" height="24px" viewBox="0 0 24 24" version="1.1" xmlns="http://www.w3.org/2000/svg" xmlns:xlink="http://www.w3.org/1999/xlink">
    <title>Icons/checkbox/indeterminate</title>
    <g id="Icons/checkbox/indeterminate" stroke="none" stroke-width="1" fill="none" fill-rule="evenodd">
        <g id="indeterminate_check_box_24dp_5F6368_FILL1_wght400_GRAD0_opsz24-(2)" transform="translate(3, 3)" fill="#0D6EFD" fill-rule="nonzero">
            <path d="M5,10 L13,10 C13.2833333,10 13.5208333,9.90416667 13.7125,9.7125 C13.9041667,9.52083333 14,9.28333333 14,9 C14,8.71666667 13.9041667,8.47916667 13.7125,8.2875 C13.5208333,8.09583333 13.2833333,8 13,8 L5,8 C4.71666667,8 4.47916667,8.09583333 4.2875,8.2875 C4.09583333,8.47916667 4,8.71666667 4,9 C4,9.28333333 4.09583333,9.52083333 4.2875,9.7125 C4.47916667,9.90416667 4.71666667,10 5,10 Z M2,18 C1.45,18 0.979166667,17.8041667 0.5875,17.4125 C0.195833333,17.0208333 0,16.55 0,16 L0,2 C0,1.45 0.195833333,0.979166667 0.5875,0.5875 C0.979166667,0.195833333 1.45,0 2,0 L16,0 C16.55,0 17.0208333,0.195833333 17.4125,0.5875 C17.8041667,0.979166667 18,1.45 18,2 L18,16 C18,16.55 17.8041667,17.0208333 17.4125,17.4125 C17.0208333,17.8041667 16.55,18 16,18 L2,18 Z" id="Shape"></path>
        </g>
    </g>
</svg>