<?xml version="1.0" encoding="UTF-8"?>
<svg width="20px" height="20px" viewBox="0 0 20 20" version="1.1" xmlns="http://www.w3.org/2000/svg" xmlns:xlink="http://www.w3.org/1999/xlink">
    <title>EditRounded</title>
    <defs>
        <path d="M12.1583334,0.491666669 C11.8416667,0.175000001 11.4166667,0 10.975,0 L1.66666667,0 C0.74166667,0 0,0.750000003 0,1.66666667 L0,13.3333334 C0,14.2500001 0.750000003,15 1.66666667,15 L13.3333334,15 C14.2500001,15 15,14.2500001 15,13.3333334 L15,4.02500002 C15,3.58333335 14.8250001,3.15833335 14.5083334,2.85000001 L12.1583334,0.491666669 Z M7.50000002,13.3333334 C6.11666669,13.3333334 5.00000002,12.2166667 5.00000002,10.8333334 C5.00000002,9.45000004 6.11666669,8.33333337 7.50000002,8.33333337 C8.88333337,8.33333337 10,9.45000004 10,10.8333334 C10,12.2166667 8.88333337,13.3333334 7.50000002,13.3333334 Z M8.33333337,5.00000002 L3.33333335,5.00000002 C2.41666668,5.00000002 1.66666667,4.25000002 1.66666667,3.33333335 C1.66666667,2.41666668 2.41666668,1.66666667 3.33333335,1.66666667 L8.33333337,1.66666667 C9.25000004,1.66666667 10,2.41666668 10,3.33333335 C10,4.25000002 9.25000004,5.00000002 8.33333337,5.00000002 Z" id="path-1"></path>
    </defs>
    <g id="Symbols" stroke="none" stroke-width="1" fill="none" fill-rule="evenodd">
        <g id="Covarege_list/saved" transform="translate(-16, -8)">
            <g id="EditRounded" transform="translate(18.5, 10.5)">
                <mask id="mask-2" fill="white">
                    <use xlink:href="#path-1"></use>
                </mask>
                <use id="SaveRounded" fill="#0D6EFD" fill-rule="nonzero" xlink:href="#path-1"></use>
            </g>
        </g>
    </g>
</svg>