<?xml version="1.0" encoding="UTF-8"?>
<svg width="24px" height="24px" viewBox="0 0 24 24" version="1.1" xmlns="http://www.w3.org/2000/svg" xmlns:xlink="http://www.w3.org/1999/xlink">
    <title>Map</title>
    <defs>
        <path d="M10.9537125,4.00000002 C7.47372253,4.00000002 4.58372252,6.54000003 4.04372252,9.87000004 C3.94372252,10.46 4.43372252,11 5.04372252,11 C5.53372253,11 5.94372253,10.64 6.02372253,10.15 C6.43372253,7.79000003 8.48372254,6.00000002 10.9537125,6.00000002 C13.4237126,6.00000002 15.4737126,7.79000003 15.8837126,10.15 C15.9637126,10.64 16.3737126,11 16.8637126,11 C17.4737126,11 17.9537126,10.46 17.8537126,9.87000004 C17.3237126,6.54000003 14.4337126,4.00000002 10.9537125,4.00000002 Z M11.9537126,13.2900001 C13.0237126,12.8100001 13.7137126,11.63 13.3637126,10.3 C13.1437126,9.49000004 12.4937126,8.83000004 11.6837126,8.60000004 C9.99371255,8.12000003 8.45372254,9.38000004 8.45372254,11 C8.45372254,12.0200001 9.07371254,12.9000001 9.95371255,13.2900001 L9.95371255,16.5900001 L7.24372253,19.2900001 C6.85372253,19.6800001 6.85372253,20.3100001 7.24372253,20.7000001 C7.63372254,21.0900001 8.26372254,21.0900001 8.65372254,20.7000001 L10.9537125,18.4000001 L13.2537126,20.7000001 C13.6437126,21.0900001 14.2737126,21.0900001 14.6637126,20.7000001 C15.0537126,20.3100001 15.0537126,19.6800001 14.6637126,19.2900001 L11.9537126,16.5900001 L11.9537126,13.2900001 Z M10.9537125,-1.77635684e-15 C5.25372253,-1.77635684e-15 0.563722506,4.34000002 0.00372250383,9.90000004 C-0.0462774964,10.49 0.413722506,11 1.00372251,11 C1.51372251,11 1.94372251,10.62 1.99372251,10.12 C2.43372251,5.56000002 6.28372253,2 10.9537125,2 C15.6237126,2 19.4737126,5.56000002 19.9137126,10.12 C19.9637126,10.62 20.3937126,11 20.9037126,11 C21.4937126,11 21.9637126,10.49 21.9037126,9.90000004 C21.3437126,4.34000002 16.6537126,-1.77635684e-15 10.9537125,-1.77635684e-15 Z" id="path-1"></path>
    </defs>
    <g id="Symbols" stroke="none" stroke-width="1" fill="none" fill-rule="evenodd">
        <g id="Tools_3-Copy-2" transform="translate(-8, -64)">
            <g id="Tools_rukller-Copy-2" transform="translate(0, 56)">
                <g id="Map" transform="translate(9.0464, 9)">
                    <mask id="mask-2" fill="white">
                        <use xlink:href="#path-1"></use>
                    </mask>
                    <use id="SettingsInputAntennaRounded" fill="#767676" fill-rule="nonzero" xlink:href="#path-1"></use>
                </g>
            </g>
        </g>
    </g>
</svg>