<?xml version="1.0" encoding="UTF-8"?>
<svg width="20px" height="20px" viewBox="0 0 20 20" version="1.1" xmlns="http://www.w3.org/2000/svg" xmlns:xlink="http://www.w3.org/1999/xlink">
    <title>SaveRounded</title>
    <defs>
        <path d="M1.66666667,0 C0.750000003,0 0,0.750000003 0,1.66666667 C0,2.58333334 0.750000003,3.33333335 1.66666667,3.33333335 C2.58333334,3.33333335 3.33333335,2.58333334 3.33333335,1.66666667 C3.33333335,0.750000003 2.58333334,0 1.66666667,0 Z M11.6666667,0 C10.75,0 10,0.750000003 10,1.66666667 C10,2.58333334 10.75,3.33333335 11.6666667,3.33333335 C12.5833334,3.33333335 13.3333334,2.58333334 13.3333334,1.66666667 C13.3333334,0.750000003 12.5833334,0 11.6666667,0 Z M6.66666669,0 C5.75000002,0 5.00000002,0.750000003 5.00000002,1.66666667 C5.00000002,2.58333334 5.75000002,3.33333335 6.66666669,3.33333335 C7.58333336,3.33333335 8.33333337,2.58333334 8.33333337,1.66666667 C8.33333337,0.750000003 7.58333336,0 6.66666669,0 Z" id="path-1"></path>
    </defs>
    <g id="Design" stroke="none" stroke-width="1" fill="none" fill-rule="evenodd">
        <g id="SaveRounded" transform="translate(3.3333, 8.3333)">
            <mask id="mask-2" fill="white">
                <use xlink:href="#path-1"></use>
            </mask>
            <use id="MoreHorizRounded" fill="#0D6EFD" fill-rule="nonzero" xlink:href="#path-1"></use>
        </g>
    </g>
</svg>