<?xml version="1.0" encoding="UTF-8"?>
<svg width="20px" height="20px" viewBox="0 0 20 20" version="1.1" xmlns="http://www.w3.org/2000/svg" xmlns:xlink="http://www.w3.org/1999/xlink">
    <title>RemoveRedEyeRounded</title>
    <defs>
        <path d="M0.833333337,13.3333333 C0.833333337,14.2500001 1.58333334,15.0000001 2.50000001,15.0000001 L9.1666667,15.0000001 C10.0833334,15.0000001 10.8333333,14.2500001 10.8333333,13.3333333 L10.8333333,5.00000002 C10.8333333,4.08333335 10.0833334,3.33333335 9.1666667,3.33333335 L2.50000001,3.33333335 C1.58333334,3.33333335 0.833333337,4.08333335 0.833333337,5.00000002 L0.833333337,13.3333333 Z M10.8333334,0.833333337 L8.75000004,0.833333337 L8.15833337,0.241666668 C8.00833337,0.091666667 7.7916667,0 7.57500003,0 L4.09166668,0 C3.87500002,0 3.65833335,0.091666667 3.50833335,0.241666668 L2.91666668,0.833333337 L0.833333337,0.833333337 C0.375000002,0.833333337 0,1.20833334 0,1.66666667 C0,2.12500001 0.375000002,2.5 0.833333337,2.5 L10.8333334,2.5 C11.2916667,2.5 11.6666667,2.12500001 11.6666667,1.66666667 C11.6666667,1.20833334 11.2916667,0.833333337 10.8333334,0.833333337 Z" id="path-1"></path>
    </defs>
    <g id="Design" stroke="none" stroke-width="1" fill="none" fill-rule="evenodd">
        <g id="RemoveRedEyeRounded" transform="translate(4.1667, 2.5)">
            <mask id="mask-2" fill="white">
                <use xlink:href="#path-1"></use>
            </mask>
            <use id="DeleteRounded" fill="#D32F2F" fill-rule="nonzero" xlink:href="#path-1"></use>
        </g>
    </g>
</svg>