<?xml version="1.0" encoding="UTF-8"?>
<svg width="20px" height="20px" viewBox="0 0 20 20" version="1.1" xmlns="http://www.w3.org/2000/svg" xmlns:xlink="http://www.w3.org/1999/xlink">
    <title>EditRounded</title>
    <defs>
        <path d="M2.00000001,5.49375002 L3.32500001,5.49375002 L3.32500001,9.66039171 C3.32500001,10.118725 3.70000002,10.493725 4.15833335,10.493725 L7.4916667,10.493725 C7.95000003,10.493725 8.32500003,10.118725 8.32500003,9.66039171 L8.32500003,5.49375002 L9.65000004,5.49375002 C10.3916667,5.49375002 10.7666667,4.59375002 10.2416667,4.06875002 L6.41666669,0.243750001 C6.09166669,-0.0812500003 5.56666669,-0.0812500003 5.24166669,0.243750001 L1.41666667,4.06875002 C0.89166667,4.59375002 1.25833334,5.49375002 2.00000001,5.49375002 Z M0,12.9937251 C0,13.4520584 0.375000002,13.8270584 0.833333337,13.8270584 L10.8333334,13.8270584 C11.2916667,13.8270584 11.6666667,13.4520584 11.6666667,12.9937251 C11.6666667,12.5353917 11.2916667,12.1603917 10.8333334,12.1603917 L0.833333337,12.1603917 C0.375000002,12.1603917 0,12.5353917 0,12.9937251 Z" id="path-1"></path>
    </defs>
    <g id="Design" stroke="none" stroke-width="1" fill="none" fill-rule="evenodd">
        <g id="EditRounded" transform="translate(4.1667, 2.8394)">
            <mask id="mask-2" fill="white">
                <use xlink:href="#path-1"></use>
            </mask>
            <use id="FileUploadRounded" fill="#0D6EFD" fill-rule="nonzero" xlink:href="#path-1"></use>
        </g>
    </g>
</svg>