<?xml version="1.0" encoding="UTF-8"?>
<svg width="32px" height="32px" viewBox="0 0 32 32" version="1.1" xmlns="http://www.w3.org/2000/svg" xmlns:xlink="http://www.w3.org/1999/xlink">
    <title>WarningRounded</title>
    <defs>
        <path d="M2.66849495,22.6766801 L22.7484684,22.6766801 C24.8018017,22.6766801 26.0818017,20.4500134 25.055135,18.6766801 L15.015135,1.33000001 C13.9884683,-0.443333335 11.4284683,-0.443333335 10.4018016,1.33000001 L0.36182827,18.6766801 C-0.664838401,20.4500134 0.615161605,22.6766801 2.66849495,22.6766801 Z M12.7084683,13.3433467 C11.975135,13.3433467 11.375135,12.7433467 11.375135,12.0100134 L11.375135,9.34334671 C11.375135,8.61001337 11.975135,8.01000003 12.7084683,8.01000003 C13.4418017,8.01000003 14.0418017,8.61001337 14.0418017,9.34334671 L14.0418017,12.0100134 C14.0418017,12.7433467 13.4418017,13.3433467 12.7084683,13.3433467 Z M14.0418017,18.6766801 L11.375135,18.6766801 L11.375135,16.0100134 L14.0418017,16.0100134 L14.0418017,18.6766801 Z" id="path-1"></path>
    </defs>
    <g id="Design" stroke="none" stroke-width="1" fill="none" fill-rule="evenodd">
        <g id="27" transform="translate(-684, -465)">
            <g id="Dialog" transform="translate(660, 449)">
                <g id="WarningRounded" transform="translate(27.2917, 21.3229)">
                    <mask id="mask-2" fill="white">
                        <use xlink:href="#path-1"></use>
                    </mask>
                    <use fill="#ED6C02" fill-rule="nonzero" xlink:href="#path-1"></use>
                </g>
            </g>
        </g>
    </g>
</svg>